PathFileType	3	(X/Y/Z)	D:\Jess\PFP\Labelled\PA02\20250516\SRRun01.trc
DataRate	CameraRate	NumFrames	NumMarkers	Units	OrigDataRate	OrigDataStartFrame	OrigNumFrames
250.0	250.0	4	37	mm	250.0	35000	2501
Frame#	Time	C7			T10			CLAV			LSHO			RSHO			LASIS			RASIS			LPSIS			RPSIS			LILCR			RILCR			LGTR			LTHI			LLTHI			LLEP			LMEP			LPSH			LLSH			LDSH			LLMAL			LMMAL			LTOE			L5TH			LHEE			RGTR			RTHI			RLTHI			RLEP			RMEP			RPSH			RLSH			RDSH			RLMAL			RMMAL			RTOE			R5TH			RHEE			
		X1	Y1	Z1	X2	Y2	Z2	X3	Y3	Z3	X4	Y4	Z4	X5	Y5	Z5	X6	Y6	Z6	X7	Y7	Z7	X8	Y8	Z8	X9	Y9	Z9	X10	Y10	Z10	X11	Y11	Z11	X12	Y12	Z12	X13	Y13	Z13	X14	Y14	Z14	X15	Y15	Z15	X16	Y16	Z16	X17	Y17	Z17	X18	Y18	Z18	X19	Y19	Z19	X20	Y20	Z20	X21	Y21	Z21	X22	Y22	Z22	X23	Y23	Z23	X24	Y24	Z24	X25	Y25	Z25	X26	Y26	Z26	X27	Y27	Z27	X28	Y28	Z28	X29	Y29	Z29	X30	Y30	Z30	X31	Y31	Z31	X32	Y32	Z32	X33	Y33	Z33	X34	Y34	Z34	X35	Y35	Z35	X36	Y36	Z36	X37	Y37	Z37	

1	139.996	899.00343025941	1529.704264150963	-351.6691435799716	818.8484755898618	1280.100292940702	-386.1630138437346	1023.371110910961	1439.082484060686	-292.7836340311296	1026.016980920936	1488.934560232442	-464.9595033262374	910.6594951345915	1489.166653785869	-165.4303962829681	991.6366056207594	987.0281713074636	-483.3221437822496	1000.949845874403	1002.543017192817	-242.5426399309933	794.541609048262	1089.746041798227	-364.6486042396563	789.6949681594527	1092.19317398548	-316.4839799096286	951.8312562016297	1084.776486392853	-508.1498634709431	907.5878736466433	1087.156103803596	-150.9340033645725	883.2979164770951	906.006833037635	-542.9476700647853	904.872835589106	726.188171203916	-455.661323276012	737.6491216682471	693.8032376761836	-486.123655132951	676.5454792705035	591.2600633742315	-453.6477142396005	nan	nan	nan	677.1447904092854	458.9848341595987	-402.3350683556574	541.0957767936195	404.8478025916505	-442.6449087350605	569.9291946924936	297.337141664171	-394.2184428113744	453.8278174604183	234.5565636584894	-405.2432254157758	nan	nan	nan	505.006521829358	80.04941795318344	-382.2578824891782	448.9077085643732	84.57190982732354	-410.9970905792516	414.0957169351537	273.2919338628089	-343.9215129242261	929.8838936699523	926.9381783637891	-123.0692221883897	1071.10131440495	827.3497020119082	-251.144403058099	995.5766669573611	684.2062115170335	-174.3046657564383	1046.880116934	557.1538142327604	-199.2763836879009	nan	nan	nan	1107.500541170336	452.7715843839041	-253.0558598639991	1062.77304828653	337.402077712128	-186.9461403330542	1132.43034199942	244.2529272927801	-256.3329846348321	1103.746618207162	121.8636078132479	-226.8826045948307	nan	nan	nan	1242.825740218147	119.8196115883005	-237.903484869836	1228.331344429578	79.85929913871614	-212.2622895943922	1043.340645577639	88.20261009280988	-293.7538176428656	
2	140	899.2022633789661	1529.016512863478	-351.4951403670453	819.1451336708652	1279.380075750885	-385.7861288222242	1023.665918494783	1438.923449988572	-292.0997916404802	1026.354361675206	1488.238627538835	-464.5884426316449	910.5289003695825	1488.421427471716	-165.0837070053072	993.2042385516162	987.3589661956718	-481.7460253337299	1001.008082012405	1002.07786811652	-241.9715896076091	795.3794493039392	1090.398785368932	-365.2401057932149	790.2833179728156	1092.793739497052	-317.0283401783036	954.1251918024781	1085.106137456127	-506.9485360754737	907.7405999251336	1087.706315010187	-151.4236864917597	885.0017819350473	906.2652099019772	-542.5671710365285	907.0341092448231	725.5998034303088	-455.973332165802	739.9455560883816	692.9632862531195	-486.0702860380641	679.3405683740376	589.6764701938689	-453.6433888392793	nan	nan	nan	677.3808323240203	457.1594186743856	-402.8175337243236	540.1307341157157	406.4015582134151	-442.3345315189118	566.3785479083393	298.4920965515303	-393.9648644055677	448.84362617413	239.2058710844606	-404.760974956453	nan	nan	nan	495.8848855934098	83.53320721046452	-382.2894356643566	439.8753681621947	89.79133018549912	-410.5785977266339	410.7766954241446	278.9009189247851	-343.2806930817311	929.1921361734427	926.9282387356877	-122.690230638757	1069.860522083122	824.7032618164021	-250.5306629763664	994.9716215050199	683.3928478309768	-173.0969373447672	1046.632572522928	556.3597281578334	-199.2412795219815	nan	nan	nan	1107.968002292086	452.8077307969959	-253.5731965967119	1064.437231659307	336.9102563069943	-187.7832188083891	1134.298639284409	244.3469752620247	-257.5145228168367	1106.578019466394	121.3450000494244	-228.3085817029657	nan	nan	nan	1245.671802658724	120.0495532475241	-239.7517080800866	1231.506616292413	79.7054915453445	-214.3987161044437	1046.20590229043	87.65516527736698	-295.1880755087728	
3	140.004	899.4055916389701	1528.346196036479	-351.3220859643171	819.4349817880055	1278.674908430459	-385.4110512130178	1023.953463576756	1438.772262979671	-291.4240136173353	1026.689531631331	1487.545274098235	-464.2181264180045	910.4012760431415	1487.685233922899	-164.7479619127814	994.7546832586833	987.6874808337658	-480.1888922880071	1001.069440975244	1001.61313781428	-241.4086806874347	796.2153255262674	1091.064574789493	-365.8323313064776	790.8780620041601	1093.411056544109	-317.5730738580696	956.3884228894932	1085.437973592504	-505.7452310037417	907.8861142184813	1088.260058234238	-151.9127581239475	886.6933188288449	906.5354256579872	-542.1923946752622	909.1908800112541	725.0213653658825	-456.2637691722005	742.2319037441864	692.1176377205373	-486.0204882979116	682.1306651491034	588.0892890791367	-453.6325714778665	nan	nan	nan	677.6164725272772	455.3346421934742	-403.2834520761851	539.1817849988585	407.9399862967412	-442.0244639773871	562.8514805709726	299.6359947199584	-393.70022873114	443.8994094631961	243.8150982429508	-404.2904645421561	nan	nan	nan	486.8397512209872	86.99394645216674	-382.3013011989485	430.9294236574083	94.96306645429532	-410.1668247300577	407.4610829665073	284.4646911206217	-342.6664060166646	928.4985556997136	926.9178021914793	-122.3257629074492	1068.624316571066	822.0604973970845	-249.9347415353796	994.4074580040557	682.5897479269128	-171.9098736142091	1046.43085728185	555.5849475301681	-199.2194029615799	nan	nan	nan	1108.420020318539	452.829496568057	-254.0870217467392	1066.040006667806	336.3981227103268	-188.5999050595786	1136.123692940751	244.3952175386874	-258.6504876421655	1109.334208161115	120.7903369058707	-229.703066513046	nan	nan	nan	1248.456711263283	120.1951864971489	-241.5595123866667	1234.594820874199	79.48151353220337	-216.4860101130257	1049.004304748282	87.10552918901766	-296.6162753461968	
4	140.008	899.6092145407935	1527.673472603629	-351.1457635102942	819.7086659928154	1277.95990233306	-385.0268684375172	1024.230002916712	1438.601638319212	-290.7647903339458	1027.014469411461	1486.824209018176	-463.8601803411855	910.2795597297173	1486.936222958936	-164.4206516624646	996.2752482006816	987.9910055200311	-478.6592166255485	1001.132340943756	1001.120518475822	-240.8519020347558	797.043914644041	1091.712313821663	-366.4173360636738	791.4751173033543	1094.011853873111	-318.1105284360975	958.5891758320861	1085.753935824059	-504.5388396153831	908.0285282710912	1088.769313216719	-152.3876455707177	888.374533905478	906.7843098971141	-541.8189584741881	911.3651602167621	724.4282599139488	-456.5034960351029	744.5444361187178	691.1995624191147	-485.9811792765773	684.9611292097617	586.4441951282316	-453.6240167582563	nan	nan	nan	677.8897258637179	453.4807548164767	-403.7259773229409	538.3051297550135	409.4457560377899	-441.7273797056745	559.3910093186956	300.7691120552919	-393.4247979057631	439.0566094350816	248.3865158782898	-403.8567513191974	nan	nan	nan	477.9376354688781	90.46000814157981	-382.2884585989114	422.1492226623293	100.101534399389	-409.7781096697513	404.1899440440347	289.9844401370041	-342.1166413335907	927.7939036924208	926.8498729951641	-121.9883215637143	1067.41566671551	819.4066311908837	-249.3559371052442	993.9170350112147	681.7681758228923	-170.7726755596219	1046.306069467995	554.8085759317599	-199.2264850616078	nan	nan	nan	1108.834924712753	452.7906679013846	-254.6086126513299	1067.504462221284	335.8342998128742	-189.3989104274121	1137.810585626708	244.3415919553984	-259.737394714415	1111.863943630652	120.1765742872644	-231.0621984582103	nan	nan	nan	1251.030779929143	120.1714241933613	-243.3058317915893	1237.418510826445	79.12758394879276	-218.4888727359526	1051.581693080602	86.55657799869829	-298.0454301406034	
